<svg id="visual" viewBox="0 0 1920 1080" width="1920" height="1080" xmlns="http://www.w3.org/2000/svg" xmlns:xlink="http://www.w3.org/1999/xlink" version="1.1"><rect x="0" y="0" width="1920" height="1080" fill="#30323D"></rect><defs><linearGradient id="grad1_0" x1="43.8%" y1="0%" x2="100%" y2="100%"><stop offset="14.444444444444446%" stop-color="#30323d" stop-opacity="1"></stop><stop offset="85.55555555555554%" stop-color="#30323d" stop-opacity="1"></stop></linearGradient></defs><defs><linearGradient id="grad2_0" x1="0%" y1="0%" x2="56.3%" y2="100%"><stop offset="14.444444444444446%" stop-color="#30323d" stop-opacity="1"></stop><stop offset="85.55555555555554%" stop-color="#30323d" stop-opacity="1"></stop></linearGradient></defs><g transform="translate(1920, 0)"><path d="M0 378C-52 344.2 -103.9 310.5 -163.5 283.2C-223.1 255.9 -290.3 235.1 -327.4 189C-364.4 142.9 -371.2 71.4 -378 0L0 0Z" fill="#CDD1C4"></path></g><g transform="translate(0, 1080)"><path d="M0 -378C65.3 -367.3 130.6 -356.7 188.5 -326.5C246.4 -296.3 297 -246.7 327.4 -189C357.7 -131.3 367.9 -65.7 378 0L0 0Z" fill="#CDD1C4"></path></g></svg>