<svg id="visual" viewBox="0 0 960 250" width="960" height="250" xmlns="http://www.w3.org/2000/svg" xmlns:xlink="http://www.w3.org/1999/xlink" version="1.1"><path d="M0 19L14.5 21C29 23 58 27 87.2 29.5C116.3 32 145.7 33 174.8 33.8C204 34.7 233 35.3 262 34.8C291 34.3 320 32.7 349 29.8C378 27 407 23 436.2 22.7C465.3 22.3 494.7 25.7 523.8 28.5C553 31.3 582 33.7 611 34.8C640 36 669 36 698 35.7C727 35.3 756 34.7 785.2 33.5C814.3 32.3 843.7 30.7 872.8 30.7C902 30.7 931 32.3 945.5 33.2L960 34L960 0L945.5 0C931 0 902 0 872.8 0C843.7 0 814.3 0 785.2 0C756 0 727 0 698 0C669 0 640 0 611 0C582 0 553 0 523.8 0C494.7 0 465.3 0 436.2 0C407 0 378 0 349 0C320 0 291 0 262 0C233 0 204 0 174.8 0C145.7 0 116.3 0 87.2 0C58 0 29 0 14.5 0L0 0Z" fill="#30323d"></path><path d="M0 81L14.5 86.8C29 92.7 58 104.3 87.2 106.8C116.3 109.3 145.7 102.7 174.8 96.8C204 91 233 86 262 87.3C291 88.7 320 96.3 349 103.8C378 111.3 407 118.7 436.2 122.8C465.3 127 494.7 128 523.8 126.8C553 125.7 582 122.3 611 114.8C640 107.3 669 95.7 698 90.7C727 85.7 756 87.3 785.2 87.3C814.3 87.3 843.7 85.7 872.8 86.5C902 87.3 931 90.7 945.5 92.3L960 94L960 32L945.5 31.2C931 30.3 902 28.7 872.8 28.7C843.7 28.7 814.3 30.3 785.2 31.5C756 32.7 727 33.3 698 33.7C669 34 640 34 611 32.8C582 31.7 553 29.3 523.8 26.5C494.7 23.7 465.3 20.3 436.2 20.7C407 21 378 25 349 27.8C320 30.7 291 32.3 262 32.8C233 33.3 204 32.7 174.8 31.8C145.7 31 116.3 30 87.2 27.5C58 25 29 21 14.5 19L0 17Z" fill="#4f6189"></path><path d="M0 181L14.5 181.5C29 182 58 183 87.2 182.2C116.3 181.3 145.7 178.7 174.8 175.3C204 172 233 168 262 168C291 168 320 172 349 174.8C378 177.7 407 179.3 436.2 179C465.3 178.7 494.7 176.3 523.8 176.8C553 177.3 582 180.7 611 179.3C640 178 669 172 698 171.5C727 171 756 176 785.2 180.7C814.3 185.3 843.7 189.7 872.8 189.3C902 189 931 184 945.5 181.5L960 179L960 92L945.5 90.3C931 88.7 902 85.3 872.8 84.5C843.7 83.7 814.3 85.3 785.2 85.3C756 85.3 727 83.7 698 88.7C669 93.7 640 105.3 611 112.8C582 120.3 553 123.7 523.8 124.8C494.7 126 465.3 125 436.2 120.8C407 116.7 378 109.3 349 101.8C320 94.3 291 86.7 262 85.3C233 84 204 89 174.8 94.8C145.7 100.7 116.3 107.3 87.2 104.8C58 102.3 29 90.7 14.5 84.8L0 79Z" fill="#5c80bc"></path><path d="M0 219L14.5 217.7C29 216.3 58 213.7 87.2 215.7C116.3 217.7 145.7 224.3 174.8 223.5C204 222.7 233 214.3 262 212.7C291 211 320 216 349 216.5C378 217 407 213 436.2 211.8C465.3 210.7 494.7 212.3 523.8 212.7C553 213 582 212 611 212C640 212 669 213 698 214.3C727 215.7 756 217.3 785.2 219.8C814.3 222.3 843.7 225.7 872.8 224.3C902 223 931 217 945.5 214L960 211L960 177L945.5 179.5C931 182 902 187 872.8 187.3C843.7 187.7 814.3 183.3 785.2 178.7C756 174 727 169 698 169.5C669 170 640 176 611 177.3C582 178.7 553 175.3 523.8 174.8C494.7 174.3 465.3 176.7 436.2 177C407 177.3 378 175.7 349 172.8C320 170 291 166 262 166C233 166 204 170 174.8 173.3C145.7 176.7 116.3 179.3 87.2 180.2C58 181 29 180 14.5 179.5L0 179Z" fill="#4f6189"></path><path d="M0 251L14.5 251C29 251 58 251 87.2 251C116.3 251 145.7 251 174.8 251C204 251 233 251 262 251C291 251 320 251 349 251C378 251 407 251 436.2 251C465.3 251 494.7 251 523.8 251C553 251 582 251 611 251C640 251 669 251 698 251C727 251 756 251 785.2 251C814.3 251 843.7 251 872.8 251C902 251 931 251 945.5 251L960 251L960 209L945.5 212C931 215 902 221 872.8 222.3C843.7 223.7 814.3 220.3 785.2 217.8C756 215.3 727 213.7 698 212.3C669 211 640 210 611 210C582 210 553 211 523.8 210.7C494.7 210.3 465.3 208.7 436.2 209.8C407 211 378 215 349 214.5C320 214 291 209 262 210.7C233 212.3 204 220.7 174.8 221.5C145.7 222.3 116.3 215.7 87.2 213.7C58 211.7 29 214.3 14.5 215.7L0 217Z" fill="#30323d"></path></svg>