<svg id="visual" viewBox="0 0 1920 1080" width="1920" height="1080" xmlns="http://www.w3.org/2000/svg" xmlns:xlink="http://www.w3.org/1999/xlink" version="1.1"><rect x="0" y="0" width="1920" height="1080" fill="#001220"></rect><path d="M0 156L40 154.5C80 153 160 150 240 167.5C320 185 400 223 480 228.8C560 234.7 640 208.3 720 183C800 157.7 880 133.3 960 122.2C1040 111 1120 113 1200 131.5C1280 150 1360 185 1440 190.8C1520 196.7 1600 173.3 1680 180.3C1760 187.3 1840 224.7 1880 243.3L1920 262L1920 0L1880 0C1840 0 1760 0 1680 0C1600 0 1520 0 1440 0C1360 0 1280 0 1200 0C1120 0 1040 0 960 0C880 0 800 0 720 0C640 0 560 0 480 0C400 0 320 0 240 0C160 0 80 0 40 0L0 0Z" fill="#395b64"></path><path d="M0 172L40 162.8C80 153.7 160 135.3 240 127.2C320 119 400 121 480 137.5C560 154 640 185 720 197.2C800 209.3 880 202.7 960 182.2C1040 161.7 1120 127.3 1200 128.5C1280 129.7 1360 166.3 1440 185.7C1520 205 1600 207 1680 209C1760 211 1840 213 1880 214L1920 215L1920 0L1880 0C1840 0 1760 0 1680 0C1600 0 1520 0 1440 0C1360 0 1280 0 1200 0C1120 0 1040 0 960 0C880 0 800 0 720 0C640 0 560 0 480 0C400 0 320 0 240 0C160 0 80 0 40 0L0 0Z" fill="#607f88"></path><path d="M0 65L40 64.3C80 63.7 160 62.3 240 64.5C320 66.7 400 72.3 480 83.8C560 95.3 640 112.7 720 128.5C800 144.3 880 158.7 960 158.7C1040 158.7 1120 144.3 1200 137C1280 129.7 1360 129.3 1440 129.8C1520 130.3 1600 131.7 1680 126.2C1760 120.7 1840 108.3 1880 102.2L1920 96L1920 0L1880 0C1840 0 1760 0 1680 0C1600 0 1520 0 1440 0C1360 0 1280 0 1200 0C1120 0 1040 0 960 0C880 0 800 0 720 0C640 0 560 0 480 0C400 0 320 0 240 0C160 0 80 0 40 0L0 0Z" fill="#89a5ae"></path><path d="M0 57L40 69.2C80 81.3 160 105.7 240 113.8C320 122 400 114 480 105.2C560 96.3 640 86.7 720 88.2C800 89.7 880 102.3 960 99.5C1040 96.7 1120 78.3 1200 69C1280 59.7 1360 59.3 1440 58.3C1520 57.3 1600 55.7 1680 60.8C1760 66 1840 78 1880 84L1920 90L1920 0L1880 0C1840 0 1760 0 1680 0C1600 0 1520 0 1440 0C1360 0 1280 0 1200 0C1120 0 1040 0 960 0C880 0 800 0 720 0C640 0 560 0 480 0C400 0 320 0 240 0C160 0 80 0 40 0L0 0Z" fill="#b3cdd6"></path><path d="M0 85L40 78.5C80 72 160 59 240 49C320 39 400 32 480 28.7C560 25.3 640 25.7 720 30.7C800 35.7 880 45.3 960 49.8C1040 54.3 1120 53.7 1200 50.8C1280 48 1360 43 1440 43.3C1520 43.7 1600 49.3 1680 51.2C1760 53 1840 51 1880 50L1920 49L1920 0L1880 0C1840 0 1760 0 1680 0C1600 0 1520 0 1440 0C1360 0 1280 0 1200 0C1120 0 1040 0 960 0C880 0 800 0 720 0C640 0 560 0 480 0C400 0 320 0 240 0C160 0 80 0 40 0L0 0Z" fill="#dff6ff"></path></svg>