<svg id="visual" viewBox="0 0 960 540" width="960" height="540" xmlns="http://www.w3.org/2000/svg" xmlns:xlink="http://www.w3.org/1999/xlink" version="1.1"><path d="M0 78L20 77.2C40 76.3 80 74.7 120 83.3C160 92 200 111 240 113.8C280 116.7 320 103.3 360 90.7C400 78 440 66 480 60.5C520 55 560 56 600 65.2C640 74.3 680 91.7 720 94.7C760 97.7 800 86.3 840 90C880 93.7 920 112.3 940 121.7L960 131L960 0L940 0C920 0 880 0 840 0C800 0 760 0 720 0C680 0 640 0 600 0C560 0 520 0 480 0C440 0 400 0 360 0C320 0 280 0 240 0C200 0 160 0 120 0C80 0 40 0 20 0L0 0Z" fill="#395b64"></path><path d="M0 85L20 80.5C40 76 80 67 120 63C160 59 200 60 240 68.2C280 76.3 320 91.7 360 97.8C400 104 440 101 480 90.8C520 80.7 560 63.3 600 63.8C640 64.3 680 82.7 720 92.3C760 102 800 103 840 104C880 105 920 106 940 106.5L960 107L960 0L940 0C920 0 880 0 840 0C800 0 760 0 720 0C680 0 640 0 600 0C560 0 520 0 480 0C440 0 400 0 360 0C320 0 280 0 240 0C200 0 160 0 120 0C80 0 40 0 20 0L0 0Z" fill="#607f88"></path><path d="M0 32L20 31.7C40 31.3 80 30.7 120 31.7C160 32.7 200 35.3 240 41.2C280 47 320 56 360 64C400 72 440 79 480 78.8C520 78.7 560 71.3 600 67.7C640 64 680 64 720 64.3C760 64.7 800 65.3 840 62.5C880 59.7 920 53.3 940 50.2L960 47L960 0L940 0C920 0 880 0 840 0C800 0 760 0 720 0C680 0 640 0 600 0C560 0 520 0 480 0C440 0 400 0 360 0C320 0 280 0 240 0C200 0 160 0 120 0C80 0 40 0 20 0L0 0Z" fill="#89a5ae"></path><path d="M0 28L20 34.2C40 40.3 80 52.7 120 56.7C160 60.7 200 56.3 240 51.8C280 47.3 320 42.7 360 43.5C400 44.3 440 50.7 480 49.3C520 48 560 39 600 34.3C640 29.7 680 29.3 720 28.8C760 28.3 800 27.7 840 30.3C880 33 920 39 940 42L960 45L960 0L940 0C920 0 880 0 840 0C800 0 760 0 720 0C680 0 640 0 600 0C560 0 520 0 480 0C440 0 400 0 360 0C320 0 280 0 240 0C200 0 160 0 120 0C80 0 40 0 20 0L0 0Z" fill="#b3cdd6"></path><path d="M0 42L20 38.7C40 35.3 80 28.7 120 23.7C160 18.7 200 15.3 240 13.7C280 12 320 12 360 14.5C400 17 440 22 480 24.3C520 26.7 560 26.3 600 25C640 23.7 680 21.3 720 21.5C760 21.7 800 24.3 840 25.2C880 26 920 25 940 24.5L960 24L960 0L940 0C920 0 880 0 840 0C800 0 760 0 720 0C680 0 640 0 600 0C560 0 520 0 480 0C440 0 400 0 360 0C320 0 280 0 240 0C200 0 160 0 120 0C80 0 40 0 20 0L0 0Z" fill="#dff6ff"></path></svg>