<svg id="visual" viewBox="0 0 1920 1080" width="1920" height="1080" xmlns="http://www.w3.org/2000/svg" xmlns:xlink="http://www.w3.org/1999/xlink" version="1.1"><rect x="0" y="0" width="1920" height="1080" fill="#30323D"></rect><defs><linearGradient id="grad1_0" x1="43.8%" y1="100%" x2="100%" y2="0%"><stop offset="14.444444444444446%" stop-color="#30323d" stop-opacity="1"></stop><stop offset="85.55555555555554%" stop-color="#30323d" stop-opacity="1"></stop></linearGradient></defs><defs><linearGradient id="grad2_0" x1="0%" y1="100%" x2="56.3%" y2="0%"><stop offset="14.444444444444446%" stop-color="#30323d" stop-opacity="1"></stop><stop offset="85.55555555555554%" stop-color="#30323d" stop-opacity="1"></stop></linearGradient></defs><g transform="translate(1920, 1080)"><path d="M-378 0C-371.2 -71.4 -364.4 -142.9 -327.4 -189C-290.3 -235.1 -223.1 -255.9 -163.5 -283.2C-103.9 -310.5 -52 -344.2 0 -378L0 0Z" fill="#CDD1C4"></path></g><g transform="translate(0, 0)"><path d="M378 0C372.7 74 367.3 148 327.4 189C287.4 230 212.8 238.1 152.5 264.1C92.2 290.1 46.1 334.1 0 378L0 0Z" fill="#CDD1C4"></path></g></svg>