<svg id="visual" viewBox="0 0 900 450" width="900" height="450" xmlns="http://www.w3.org/2000/svg" xmlns:xlink="http://www.w3.org/1999/xlink" version="1.1"><path d="M0 397L18.8 394.8C37.7 392.7 75.3 388.3 112.8 380.2C150.3 372 187.7 360 225.2 355.7C262.7 351.3 300.3 354.7 337.8 356.2C375.3 357.7 412.7 357.3 450.2 359.2C487.7 361 525.3 365 562.8 362.3C600.3 359.7 637.7 350.3 675.2 350.7C712.7 351 750.3 361 787.8 365.3C825.3 369.7 862.7 368.3 881.3 367.7L900 367L900 451L881.3 451C862.7 451 825.3 451 787.8 451C750.3 451 712.7 451 675.2 451C637.7 451 600.3 451 562.8 451C525.3 451 487.7 451 450.2 451C412.7 451 375.3 451 337.8 451C300.3 451 262.7 451 225.2 451C187.7 451 150.3 451 112.8 451C75.3 451 37.7 451 18.8 451L0 451Z" fill="#395b64"></path><path d="M0 384L18.8 388.5C37.7 393 75.3 402 112.8 398.3C150.3 394.7 187.7 378.3 225.2 377.7C262.7 377 300.3 392 337.8 393.7C375.3 395.3 412.7 383.7 450.2 384.7C487.7 385.7 525.3 399.3 562.8 399.3C600.3 399.3 637.7 385.7 675.2 384C712.7 382.3 750.3 392.7 787.8 392.7C825.3 392.7 862.7 382.3 881.3 377.2L900 372L900 451L881.3 451C862.7 451 825.3 451 787.8 451C750.3 451 712.7 451 675.2 451C637.7 451 600.3 451 562.8 451C525.3 451 487.7 451 450.2 451C412.7 451 375.3 451 337.8 451C300.3 451 262.7 451 225.2 451C187.7 451 150.3 451 112.8 451C75.3 451 37.7 451 18.8 451L0 451Z" fill="#607f88"></path><path d="M0 404L18.8 401.5C37.7 399 75.3 394 112.8 395C150.3 396 187.7 403 225.2 408.5C262.7 414 300.3 418 337.8 412.3C375.3 406.7 412.7 391.3 450.2 383.7C487.7 376 525.3 376 562.8 382.8C600.3 389.7 637.7 403.3 675.2 409.8C712.7 416.3 750.3 415.7 787.8 413.8C825.3 412 862.7 409 881.3 407.5L900 406L900 451L881.3 451C862.7 451 825.3 451 787.8 451C750.3 451 712.7 451 675.2 451C637.7 451 600.3 451 562.8 451C525.3 451 487.7 451 450.2 451C412.7 451 375.3 451 337.8 451C300.3 451 262.7 451 225.2 451C187.7 451 150.3 451 112.8 451C75.3 451 37.7 451 18.8 451L0 451Z" fill="#89a5ae"></path><path d="M0 429L18.8 425.7C37.7 422.3 75.3 415.7 112.8 414.5C150.3 413.3 187.7 417.7 225.2 420C262.7 422.3 300.3 422.7 337.8 419.8C375.3 417 412.7 411 450.2 409.7C487.7 408.3 525.3 411.7 562.8 413.3C600.3 415 637.7 415 675.2 411.7C712.7 408.3 750.3 401.7 787.8 398.5C825.3 395.3 862.7 395.7 881.3 395.8L900 396L900 451L881.3 451C862.7 451 825.3 451 787.8 451C750.3 451 712.7 451 675.2 451C637.7 451 600.3 451 562.8 451C525.3 451 487.7 451 450.2 451C412.7 451 375.3 451 337.8 451C300.3 451 262.7 451 225.2 451C187.7 451 150.3 451 112.8 451C75.3 451 37.7 451 18.8 451L0 451Z" fill="#b3cdd6"></path><path d="M0 422L18.8 423C37.7 424 75.3 426 112.8 424.5C150.3 423 187.7 418 225.2 419.8C262.7 421.7 300.3 430.3 337.8 433C375.3 435.7 412.7 432.3 450.2 428.5C487.7 424.7 525.3 420.3 562.8 422C600.3 423.7 637.7 431.3 675.2 433.2C712.7 435 750.3 431 787.8 430.5C825.3 430 862.7 433 881.3 434.5L900 436L900 451L881.3 451C862.7 451 825.3 451 787.8 451C750.3 451 712.7 451 675.2 451C637.7 451 600.3 451 562.8 451C525.3 451 487.7 451 450.2 451C412.7 451 375.3 451 337.8 451C300.3 451 262.7 451 225.2 451C187.7 451 150.3 451 112.8 451C75.3 451 37.7 451 18.8 451L0 451Z" fill="#dff6ff"></path></svg>