<svg id="visual" viewBox="0 0 1920 400" width="1920" height="400" xmlns="http://www.w3.org/2000/svg" xmlns:xlink="http://www.w3.org/1999/xlink" version="1.1"><path d="M0 33L45.7 37.7C91.3 42.3 182.7 51.7 274.2 53C365.7 54.3 457.3 47.7 548.8 42.3C640.3 37 731.7 33 823 37C914.3 41 1005.7 53 1097 58.3C1188.3 63.7 1279.7 62.3 1371.2 62.3C1462.7 62.3 1554.3 63.7 1645.8 63C1737.3 62.3 1828.7 59.7 1874.3 58.3L1920 57L1920 0L1874.3 0C1828.7 0 1737.3 0 1645.8 0C1554.3 0 1462.7 0 1371.2 0C1279.7 0 1188.3 0 1097 0C1005.7 0 914.3 0 823 0C731.7 0 640.3 0 548.8 0C457.3 0 365.7 0 274.2 0C182.7 0 91.3 0 45.7 0L0 0Z" fill="#30323d"></path><path d="M0 145L45.7 148.3C91.3 151.7 182.7 158.3 274.2 156.3C365.7 154.3 457.3 143.7 548.8 140.3C640.3 137 731.7 141 823 145.7C914.3 150.3 1005.7 155.7 1097 159C1188.3 162.3 1279.7 163.7 1371.2 165.7C1462.7 167.7 1554.3 170.3 1645.8 171C1737.3 171.7 1828.7 170.3 1874.3 169.7L1920 169L1920 55L1874.3 56.3C1828.7 57.7 1737.3 60.3 1645.8 61C1554.3 61.7 1462.7 60.3 1371.2 60.3C1279.7 60.3 1188.3 61.7 1097 56.3C1005.7 51 914.3 39 823 35C731.7 31 640.3 35 548.8 40.3C457.3 45.7 365.7 52.3 274.2 51C182.7 49.7 91.3 40.3 45.7 35.7L0 31Z" fill="#4f6189"></path><path d="M0 205L45.7 205C91.3 205 182.7 205 274.2 203.7C365.7 202.3 457.3 199.7 548.8 203.7C640.3 207.7 731.7 218.3 823 225.7C914.3 233 1005.7 237 1097 241C1188.3 245 1279.7 249 1371.2 245.7C1462.7 242.3 1554.3 231.7 1645.8 225.7C1737.3 219.7 1828.7 218.3 1874.3 217.7L1920 217L1920 167L1874.3 167.7C1828.7 168.3 1737.3 169.7 1645.8 169C1554.3 168.3 1462.7 165.7 1371.2 163.7C1279.7 161.7 1188.3 160.3 1097 157C1005.7 153.7 914.3 148.3 823 143.7C731.7 139 640.3 135 548.8 138.3C457.3 141.7 365.7 152.3 274.2 154.3C182.7 156.3 91.3 149.7 45.7 146.3L0 143Z" fill="#5c80bc"></path><path d="M0 261L45.7 263.7C91.3 266.3 182.7 271.7 274.2 270.3C365.7 269 457.3 261 548.8 263C640.3 265 731.7 277 823 285.7C914.3 294.3 1005.7 299.7 1097 299C1188.3 298.3 1279.7 291.7 1371.2 287C1462.7 282.3 1554.3 279.7 1645.8 277.7C1737.3 275.7 1828.7 274.3 1874.3 273.7L1920 273L1920 215L1874.3 215.7C1828.7 216.3 1737.3 217.7 1645.8 223.7C1554.3 229.7 1462.7 240.3 1371.2 243.7C1279.7 247 1188.3 243 1097 239C1005.7 235 914.3 231 823 223.7C731.7 216.3 640.3 205.7 548.8 201.7C457.3 197.7 365.7 200.3 274.2 201.7C182.7 203 91.3 203 45.7 203L0 203Z" fill="#4f6189"></path><path d="M0 401L45.7 401C91.3 401 182.7 401 274.2 401C365.7 401 457.3 401 548.8 401C640.3 401 731.7 401 823 401C914.3 401 1005.7 401 1097 401C1188.3 401 1279.7 401 1371.2 401C1462.7 401 1554.3 401 1645.8 401C1737.3 401 1828.7 401 1874.3 401L1920 401L1920 271L1874.3 271.7C1828.7 272.3 1737.3 273.7 1645.8 275.7C1554.3 277.7 1462.7 280.3 1371.2 285C1279.7 289.7 1188.3 296.3 1097 297C1005.7 297.7 914.3 292.3 823 283.7C731.7 275 640.3 263 548.8 261C457.3 259 365.7 267 274.2 268.3C182.7 269.7 91.3 264.3 45.7 261.7L0 259Z" fill="#30323d"></path></svg>